<?xml version="1.0" encoding="UTF-8" standalone="no"?><!DOCTYPE svg PUBLIC "-//W3C//DTD SVG 1.1//EN" "http://www.w3.org/Graphics/SVG/1.1/DTD/svg11.dtd"><svg width="100%" height="100%" viewBox="0 0 4267 4267" version="1.1" xmlns="http://www.w3.org/2000/svg" xmlns:xlink="http://www.w3.org/1999/xlink" xml:space="preserve" xmlns:serif="http://www.serif.com/" style="fill-rule:evenodd;clip-rule:evenodd;stroke-linejoin:round;stroke-miterlimit:2;"><g id="Layer10"><path d="M588.325,1771.01c-122.527,123.62 -170.184,294.15 -170.184,483.586l0,267.392c0,924.212 691.908,1674.56 1544.14,1674.56l342.097,0c852.236,0 1544.14,-750.343 1544.14,-1674.56l-0,-267.392c-0,-188.947 -47.075,-360.043 -169.039,-483.586l0,-286.225c0,-780.769 -621.525,-1414.65 -1387.07,-1414.65l-317.021,-0c-765.545,-0 -1387.07,633.884 -1387.07,1414.65l0,286.225Zm1420.08,1499.92c-184.826,-65.534 -317.336,-241.981 -317.336,-449.134c-0,-262.917 213.455,-476.372 476.372,-476.372c262.918,-0 476.373,213.455 476.373,476.372c-0,207.153 -132.51,383.6 -317.336,449.134l-0,311.549c-0,87.774 -71.262,159.036 -159.037,159.036c-87.774,-0 -159.036,-71.262 -159.036,-159.036l-0,-311.549Zm1080.97,-1698.03l0,-140.386c0,-406.821 -323.848,-737.109 -722.737,-737.109l-431.731,0c-398.89,0 -722.738,330.288 -722.738,737.109l0,140.386l1877.21,0Z" style="fill:#00aff0;"/></g></svg>