<?xml version="1.0" encoding="UTF-8" standalone="no"?><!DOCTYPE svg PUBLIC "-//W3C//DTD SVG 1.1//EN" "http://www.w3.org/Graphics/SVG/1.1/DTD/svg11.dtd"><svg width="100%" height="100%" viewBox="0 0 4267 4267" version="1.1" xmlns="http://www.w3.org/2000/svg" xmlns:xlink="http://www.w3.org/1999/xlink" xml:space="preserve" xmlns:serif="http://www.serif.com/" style="fill-rule:evenodd;clip-rule:evenodd;stroke-linecap:round;stroke-linejoin:round;stroke-miterlimit:3;"><g><path d="M189.442,1193.42l1683.3,1143.2c0,0 117.063,82.415 260.59,82.415c143.527,0 249.481,-82.415 249.481,-82.415l1693.99,-1143.2" style="fill:none;stroke:#c8c8c8;stroke-width:208.33px;"/><path d="M4216.67,1181.96c-0,-275.958 -224.043,-500 -500,-500c-0,-0 -3166.67,-0 -3166.67,-0c-275.958,-0 -500,224.042 -500,500c-0,-0 -0,1902.74 -0,1902.74c-0,275.958 224.042,500 500,500c0,-0 3166.67,-0 3166.67,-0c275.957,-0 500,-224.042 500,-500l-0,-1902.74Zm-208.334,-0c0,-160.976 -130.691,-291.667 -291.666,-291.667l-3166.67,0c-160.975,0 -291.667,130.691 -291.667,291.667l0,1902.74c0,160.975 130.692,291.667 291.667,291.667l3166.67,-0c160.975,-0 291.666,-130.692 291.666,-291.667l0,-1902.74Z" style="fill:#c8c8c8;"/></g></svg>