<?xml version="1.0" encoding="UTF-8" standalone="no"?><!DOCTYPE svg PUBLIC "-//W3C//DTD SVG 1.1//EN" "http://www.w3.org/Graphics/SVG/1.1/DTD/svg11.dtd"><svg width="100%" height="100%" viewBox="0 0 4267 4267" version="1.1" xmlns="http://www.w3.org/2000/svg" xmlns:xlink="http://www.w3.org/1999/xlink" xml:space="preserve" xmlns:serif="http://www.serif.com/" style="fill-rule:evenodd;clip-rule:evenodd;stroke-linejoin:round;stroke-miterlimit:1.5;"><g id="Layer9"><path d="M1512.08,1330.37l0,-458.87c0,-296.95 324.301,-538.035 621.25,-538.035c296.95,0 621.25,241.085 621.25,538.035l0,458.87" style="fill:none;stroke:#c8c8c8;stroke-width:354.17px;"/><path d="M3730.64,2012.98c-0,-376.739 -305.864,-682.603 -682.603,-682.603l-1829.4,-0c-376.739,-0 -682.603,305.864 -682.603,682.603l-0,1365.21c-0,376.739 305.864,682.603 682.603,682.603l1829.4,0c376.739,0 682.603,-305.864 682.603,-682.603l-0,-1365.21Zm-1419.61,732.763c120.465,-63.837 202.611,-190.533 202.611,-336.265c0,-209.897 -170.41,-380.306 -380.307,-380.306c-209.897,-0 -380.306,170.409 -380.306,380.306c-0,145.732 82.146,272.428 202.61,336.265l0,554.165c0,49.037 39.812,88.848 88.848,88.848l177.696,0c49.037,0 88.848,-39.811 88.848,-88.848l0,-554.165Z" style="fill:none;stroke:#c8c8c8;stroke-width:208.33px;stroke-linecap:round;"/></g></svg>