<?xml version="1.0" encoding="UTF-8" standalone="no"?><!DOCTYPE svg PUBLIC "-//W3C//DTD SVG 1.1//EN" "http://www.w3.org/Graphics/SVG/1.1/DTD/svg11.dtd"><svg width="100%" height="100%" viewBox="0 0 4267 4267" version="1.1" xmlns="http://www.w3.org/2000/svg" xmlns:xlink="http://www.w3.org/1999/xlink" xml:space="preserve" xmlns:serif="http://www.serif.com/" style="fill-rule:evenodd;clip-rule:evenodd;stroke-linecap:round;stroke-linejoin:round;stroke-miterlimit:3;"><g id="User"><g><path d="M445.833,3859.09l0,-285.426c0,-351.421 617.843,-999.666 1356.56,-1147.09l670.362,1.718c733.032,150.504 1348.08,788.638 1348.08,1145.37l0,285.426" style="fill:none;stroke:#c8c8c8;stroke-width:208.33px;"/><path d="M445.833,3859.09l3375,-0" style="fill:none;stroke:#c8c8c8;stroke-width:208.33px;"/></g><path d="M2212.77,229.455c-498.499,-0 -903.216,404.718 -903.216,903.216c-0,498.499 404.717,903.217 903.216,903.217c498.499,0 903.217,-404.718 903.217,-903.217c0,-498.498 -404.718,-903.216 -903.217,-903.216Zm0,208.333c383.517,-0 694.884,311.367 694.884,694.883c-0,383.517 -311.367,694.884 -694.884,694.884c-383.516,-0 -694.883,-311.367 -694.883,-694.884c-0,-383.516 311.367,-694.883 694.883,-694.883Z" style="fill:#c8c8c8;"/></g></svg>