<?xml version="1.0" encoding="UTF-8" standalone="no"?><!DOCTYPE svg PUBLIC "-//W3C//DTD SVG 1.1//EN" "http://www.w3.org/Graphics/SVG/1.1/DTD/svg11.dtd"><svg width="100%" height="100%" viewBox="0 0 4267 4267" version="1.1" xmlns="http://www.w3.org/2000/svg" xmlns:xlink="http://www.w3.org/1999/xlink" xml:space="preserve" xmlns:serif="http://www.serif.com/" style="fill-rule:evenodd;clip-rule:evenodd;stroke-linecap:round;stroke-linejoin:round;stroke-miterlimit:1.5;"><g id="Layer8"><circle cx="2133.33" cy="2133.33" r="1979.17" style="fill:none;stroke:#393939;stroke-width:166.67px;"/><path d="M2151.24,154.167c390.774,-0 1161.27,886.835 1161.27,1979.17c-0,1092.33 -765.339,1979.17 -1161.27,1979.17c-395.933,0 -1197.09,-886.835 -1197.09,-1979.17c0,-1092.33 806.319,-1979.17 1197.09,-1979.17Z" style="fill:none;stroke:#393939;stroke-width:166.67px;"/><path d="M2133.33,154.167l0,3958.33" style="fill:none;stroke:#393939;stroke-width:166.67px;"/><path d="M519.861,1000c0,0 708.566,392.048 1610.61,392.048c902.042,0 1610.61,-392.048 1610.61,-392.048" style="fill:none;stroke:#393939;stroke-width:166.67px;"/><path d="M519.861,3288.36c0,-0 708.566,-392.048 1610.61,-392.048c902.042,-0 1610.61,392.048 1610.61,392.048" style="fill:none;stroke:#393939;stroke-width:166.67px;"/></g></svg>