<?xml version="1.0" encoding="UTF-8" standalone="no"?><!DOCTYPE svg PUBLIC "-//W3C//DTD SVG 1.1//EN" "http://www.w3.org/Graphics/SVG/1.1/DTD/svg11.dtd"><svg width="100%" height="100%" viewBox="0 0 4267 4267" version="1.1" xmlns="http://www.w3.org/2000/svg" xmlns:xlink="http://www.w3.org/1999/xlink" xml:space="preserve" xmlns:serif="http://www.serif.com/" style="fill-rule:evenodd;clip-rule:evenodd;stroke-linejoin:round;stroke-miterlimit:3;"><g id="Layer9"><g id="Layer12"><path d="M369.131,3113.83l1218.99,-1218.99c-137.301,-416.269 -40.524,-893.129 290.331,-1223.98c467.642,-467.643 1226.98,-467.643 1694.62,-0c467.643,467.643 467.643,1226.98 0,1694.62c-330.855,330.855 -807.715,427.632 -1223.98,290.331l-133.417,-35.466l10.82,309.241l-577.071,30.446l-46.04,431.99l-57.508,57.507l-379.936,-6.012l-2.308,388.256l-71.42,71.421l-660.55,-9.785l-112.315,-112.316l49.79,-667.256Z" style="fill:none;stroke:#c8c8c8;stroke-width:208.33px;"/><path d="M2921.53,1278.47c113.608,113.608 113.608,298.079 -0,411.687c-113.608,113.608 -298.079,113.608 -411.687,-0c-113.608,-113.608 -113.608,-298.079 0,-411.687c113.608,-113.608 298.079,-113.608 411.687,-0Z" style="fill:#c8c8c8;"/></g></g></svg>